<?xml version="1.0" encoding="utf-8"?>
<!-- Generator: Adobe Illustrator 23.0.4, SVG Export Plug-In . SVG Version: 6.00 Build 0)  -->
<svg version="1.1" xmlns="http://www.w3.org/2000/svg" xmlns:xlink="http://www.w3.org/1999/xlink" x="0px" y="0px"
	 viewBox="0 0 750 500" style="enable-background:new 0 0 750 500;" xml:space="preserve">
<style type="text/css">
	.st0{fill:#D7D1EB;}
	.st1{fill:#FFFFFF;}
	.st2{clip-path:url(#SVGID_2_);fill:#1B034B;}
	.st3{opacity:0.5;clip-path:url(#SVGID_2_);}
	.st4{fill:none;stroke:#79D3FE;stroke-linejoin:round;stroke-miterlimit:10;}
	.st5{clip-path:url(#SVGID_2_);}
	.st6{fill:#0197F8;}
	.st7{fill:#79D3FE;}
	.st8{fill:#FFCDA8;}
	.st9{fill:#FFA163;}
	.st10{fill:#FE61CA;}
	.st11{fill:#9D4EC5;}
	.st12{fill:#E9E5F6;}
	.st13{fill:#3B03A6;}
	.st14{fill:#535FE9;}
	.st15{fill:none;stroke:#FE61CA;stroke-width:2.6132;stroke-linejoin:round;stroke-miterlimit:10;}
	.st16{opacity:0.5;}
	.st17{fill:none;stroke:#0197F8;stroke-linejoin:round;stroke-miterlimit:10;}
	.st18{opacity:0.75;}
	.st19{fill:none;stroke:#D7D1EB;stroke-linejoin:round;stroke-miterlimit:10;}
	.st20{fill:none;stroke:#E9E5F6;stroke-linejoin:round;stroke-miterlimit:10;}
	.st21{fill:none;stroke:#FE61CA;stroke-linejoin:round;stroke-miterlimit:10;}
	.st22{fill:none;stroke:#9D4EC5;stroke-linejoin:round;stroke-miterlimit:10;}
	.st23{fill:#1B034B;}
	.st24{fill:none;stroke:#FFA163;stroke-linejoin:round;stroke-miterlimit:10;}
	.st25{fill:none;stroke:#FFCDA8;stroke-linejoin:round;stroke-miterlimit:10;}
	.st26{opacity:0.6;}
</style>
<g id="BACKGROUND">
	<rect class="st0" width="750" height="500"/>
</g>
<g id="OBJECTS">
	
		<rect x="0.88" y="1.13" transform="matrix(-1 -4.489621e-11 4.489621e-11 -1 750.9695 501.0417)" class="st1" width="749.22" height="498.78"/>
	<g>
		<defs>
			
				<rect id="SVGID_1_" x="-3.66" y="-0.71" transform="matrix(-1 -4.472124e-11 4.472124e-11 -1 747.562 499.202)" width="754.87" height="500.62"/>
		</defs>
		<clipPath id="SVGID_2_">
			<use xlink:href="#SVGID_1_"  style="overflow:visible;"/>
		</clipPath>
		<path class="st2" d="M565.49-86.82c0,0,170.98,142.48,236.34,195.4s47.63,87.15-8.21,74.7s-117.28-29.12-84.6,2.56
			c32.68,31.68,203.15,159.83,203.15,159.83l-31.92,138.48c0,0-117.76,32.92-192.86,62.63c-75.11,29.71-82.3,43.89-58.11,45.1
			c24.18,1.21,54.9,4.5,30.06,22.57c-24.84,18.07-342.48,236.63-342.48,236.63l-420.91-8.45V-86.82H565.49z"/>
		<g class="st3">
			<polygon class="st4" points="-71.66,157.2 5.57,253.07 64.35,202.18 -12.88,106.31 			"/>
			<polygon class="st4" points="-55.75,176.95 -10.34,233.32 48.44,182.43 3.03,126.06 			"/>
			<polygon class="st4" points="-40.72,195.61 -25.38,214.65 33.4,163.77 18.06,144.72 			"/>
			<line class="st4" x1="49.6" y1="214.95" x2="-27.62" y2="119.07"/>
			<line class="st4" x1="34.96" y1="227.62" x2="-42.27" y2="131.75"/>
			<line class="st4" x1="20.31" y1="240.3" x2="-56.91" y2="144.43"/>
		</g>
		<g class="st5">
			<polygon class="st6" points="510.59,378.92 548.04,506.97 480.05,514.57 			"/>
			<polygon class="st6" points="315.67,352.33 248.54,410.84 271.41,478.62 327.52,430.58 			"/>
			<polygon class="st7" points="459.66,348.44 510.59,378.92 510.59,571.96 303.29,571.96 315.67,352.33 355.51,336.55 			"/>
			<path class="st8" d="M385.51,196.47l-28.49,41.17l9.5,10.59l-7.52,14.66c-2.88,5.62-1.42,12.58,3.46,16.44l17.44,13.82v75.75
				l21.15,28.2l42.31-43.3v-12.75l-4.32-55.94l10.79-71.61L385.51,196.47z"/>
			<path class="st9" d="M376.55,224.47l-7.12,10.8l23.64,4.06l8.63,8.91h0c-4.5,6.72-3.26,15.9,2.86,21.07l14.3,12.09l17.81-38.45
				L376.55,224.47z"/>
			<path class="st10" d="M459.35,264.73c0,0,15.53-17.6,16.82-38.29c1.3-20.69-8.41-29.97-8.41-29.97l-31.09-22.06
				c0,0-16.19-6.12-17.81-13.74c-1.62-7.62,1.06-8.96-6.75-9.97c-7.82-1.01-32.75,9.73-24.65,34.57
				c5.18,15.89,24.63,28.3,37.98,35.17c7.24,3.73,10.45,12.63,7.38,20.39l-4.23,10.67L459.35,264.73z"/>
			<path class="st11" d="M395.25,157.08c-1.56,4.75-2.25,10.2,0.08,14.89c5.5,11.08,45.59,38.14,56.66,54.04
				c7.95,11.42,1.13,26.53-3.33,34.13l-20.08-8.63l4.23-10.67c3.08-7.75-0.14-16.65-7.38-20.39c-13.34-6.88-32.8-19.28-37.98-35.17
				C383.1,171.92,388.3,162.65,395.25,157.08z"/>
			<path class="st9" d="M395.55,295.21c8.26-0.84,23.31-5.87,23.31-5.87s-18.83,23.28-38.96,23.33v-19.52
				C379.9,293.14,387.29,296.05,395.55,295.21z"/>
			<path class="st12" d="M441.98,323.2c0,0,4.4-0.97,14.11,5.41c9.71,6.38,5.18,18.13,0,26.85c-5.18,8.73-27.52,32.89-27.52,32.89
				l-15.86-20.47l30.65-26.85L441.98,323.2z"/>
			<path class="st12" d="M379.9,349.31v-28.87c0,0-20.94,7.83-24.39,16.11c-3.45,8.28,20.94,47.66,20.94,47.66l15.11-18.57
				L379.9,349.31z"/>
			<polygon class="st0" points="412.71,367.88 401.05,394.06 391.55,365.64 383.02,376.13 396.09,405.25 396.09,435.01 
				407.1,435.01 407.1,404.35 420.37,377.77 			"/>
			<path class="st13" d="M407.95,196.68l20.24,17.63c3.51,3.05,4.08,8.42,1.31,12.2l-16.32,22.23c-2.88,3.92-8.29,4.67-12.06,1.67
				l-19.22-15.32L407.95,196.68z"/>
			<path class="st14" d="M381.89,235.1l-40.08-29.52c-3.31-2.44-4.06-7.2-1.68-10.6l17.53-25.07c2.32-3.32,6.76-4.12,10.03-1.8
				l40.26,28.57c3.36,2.38,4.19,7.15,1.84,10.6l-17.72,26.01C389.74,236.71,385.18,237.52,381.89,235.1z"/>
			<path class="st14" d="M436.67,174.41c0,0,3.45-1.47,6.69,0c3.24,1.47,22.88,15.54,25.04,18.57c2.16,3.04-0.86,52.94-13.81,66.36
				c-12.95,13.43-16.07-11.12-16.07-11.12S453.93,202.48,436.67,174.41z"/>
			<polygon class="st13" points="451.24,242.79 423.82,218.56 412.61,233.62 441.09,255.32 			"/>
			<ellipse class="st13" cx="438.52" cy="266.18" rx="25.9" ry="26.85"/>
			<ellipse class="st14" cx="442.4" cy="269.79" rx="17.63" ry="18.28"/>
			<path class="st8" d="M248.54,410.84l-21.89-64.45l-40.15,16.11l26.46,106.33c3.89,15.63,21.12,23.06,34.55,14.9l21.27-12.92
				L248.54,410.84z"/>
			<polygon class="st9" points="226.65,346.4 192.93,388.35 186.5,362.51 			"/>
			<polygon class="st13" points="218.77,319.55 210.24,254.2 190.81,251.3 188.87,286.65 			"/>
			<path class="st14" d="M176.35,339.35l-35.62-24.5l-22.34-73.51l16.19-5.37l21.37,39.27l-8.58-37.93l16.35-3.36l8.42,38.67
				l25.25,10.1c10.24,4.1,17.63,13.49,19.43,24.71l1.95,12.1L176.35,339.35z"/>
			<polygon class="st13" points="218.77,319.55 226.65,346.4 179.11,366.93 176.35,339.35 			"/>
			<polygon class="st13" points="164.05,313.95 166.42,291.57 152.61,285.42 140.74,314.85 130.59,260.92 145.77,256.53 
				151.53,277.48 143.33,262.26 136.31,265.84 141.6,299.85 151.96,279.94 171.65,287.64 			"/>
			<polygon class="st14" points="288.03,464.39 314.41,374.54 310.43,445.21 			"/>
			<polygon class="st14" points="510.59,378.92 525.58,509.48 510.59,511.16 			"/>
			<path class="st6" d="M469.03,414.54c0,0-56.92,59.35-70.81,58.93c-13.9-0.42-46.75-19.21-46.75-19.21s30.38,41.62,51.05,36.25
				C423.18,485.14,469.03,414.54,469.03,414.54z"/>
			<polygon class="st9" points="366.52,248.23 357.02,237.65 373.78,248.23 			"/>
			<path class="st13" d="M354.3,188.99l36.58,25.94c1.14,0.81,2.69,0.5,3.47-0.67l0,0c0.78-1.18,0.49-2.79-0.65-3.59l-36.58-25.94
				c-1.14-0.81-2.69-0.5-3.47,0.67l0,0C352.87,186.58,353.16,188.19,354.3,188.99z"/>
		</g>
	</g>
	<g>
		<ellipse class="st15" cx="206.8" cy="238.52" rx="37.3" ry="38.81"/>
		<path class="st15" d="M181.78,209.71c-23.47-9.23-41.09-12.36-43.74-6.81c-3.76,7.86,23.97,30.18,61.94,49.85
			c37.97,19.67,71.8,29.24,75.56,21.38c2.65-5.54-10.36-18.28-31.59-32.21"/>
		<path class="st10" d="M246.08,275.37c0.93,2.88,3.92,4.43,6.69,3.46c2.77-0.97,4.26-4.08,3.33-6.96
			c-0.93-2.88-3.92-4.43-6.69-3.46C246.64,269.37,245.15,272.49,246.08,275.37z"/>
		<path class="st10" d="M156.5,205.03c0.93,2.88,3.92,4.43,6.69,3.46c2.77-0.97,4.26-4.08,3.33-6.96c-0.93-2.88-3.92-4.43-6.69-3.46
			C157.06,199.03,155.57,202.15,156.5,205.03z"/>
	</g>
	<g class="st16">
		<polyline class="st17" points="187.7,57.38 240.2,125.27 231.18,42.77 		"/>
		<polygon class="st4" points="240.2,125.27 211.37,75.61 256.85,66.81 		"/>
		<polygon class="st4" points="256.85,66.81 231.18,42.77 187.7,57.38 211.37,75.61 		"/>
	</g>
	<g class="st18">
		<polyline class="st19" points="59.16,380.09 75.42,304.97 25.53,356.82 		"/>
		<polygon class="st20" points="75.42,304.97 58.26,353.03 27.4,325.11 		"/>
		<polygon class="st20" points="27.4,325.11 25.53,356.82 59.16,380.09 58.26,353.03 		"/>
	</g>
	<g class="st16">
		<path class="st21" d="M81.66,431.5c0,18.39,14.32,33.29,31.99,33.29c17.67,0,31.99-14.9,31.99-33.29
			c0-18.39-14.32-33.29-31.99-33.29C95.98,398.21,81.66,413.11,81.66,431.5z M93.33,431.5c0-11.68,9.1-21.15,20.32-21.15
			s20.32,9.47,20.32,21.15c0,11.68-9.1,21.15-20.32,21.15S93.33,443.18,93.33,431.5z"/>
		<path class="st22" d="M113.65,398.21v12.14c-11.22,0-20.32,9.47-20.32,21.15H81.66C81.66,413.11,95.98,398.21,113.65,398.21z"/>
	</g>
	<path class="st7" d="M76.94,260.74c0,2.71,2.11,4.91,4.72,4.91c2.61,0,4.72-2.2,4.72-4.91s-2.11-4.91-4.72-4.91
		C79.05,255.82,76.94,258.02,76.94,260.74z"/>
	<ellipse class="st7" cx="301.14" cy="161.47" rx="4.22" ry="4.39"/>
	<ellipse class="st23" cx="350.69" cy="116.64" rx="4.22" ry="4.39"/>
	<ellipse class="st23" cx="187.7" cy="469.18" rx="4.22" ry="4.39"/>
	<ellipse class="st1" cx="176.9" cy="131.05" rx="2.19" ry="2.28"/>
	<ellipse class="st23" cx="305.36" cy="336.21" rx="2.19" ry="2.28"/>
	<ellipse class="st23" cx="166.11" cy="490.54" rx="2.19" ry="2.28"/>
	<path class="st23" d="M342.03,319.39c0,1.26,0.98,2.28,2.19,2.28c1.21,0,2.19-1.02,2.19-2.28c0-1.26-0.98-2.28-2.19-2.28
		C343.01,317.11,342.03,318.13,342.03,319.39z"/>
	<ellipse class="st23" cx="375.49" cy="104.44" rx="2.19" ry="2.28"/>
	<path class="st23" d="M354.8,25.62c0,1.26,0.98,2.28,2.19,2.28c1.21,0,2.19-1.02,2.19-2.28c0-1.26-0.98-2.28-2.19-2.28
		C355.77,23.34,354.8,24.36,354.8,25.62z"/>
	<ellipse class="st1" cx="294.73" cy="236.24" rx="2.19" ry="2.28"/>
	<ellipse class="st9" cx="33.18" cy="90.37" rx="2.19" ry="2.28"/>
	<path class="st9" d="M40.16,276.41c0,1.26,0.98,2.28,2.19,2.28c1.21,0,2.19-1.02,2.19-2.28c0-1.26-0.98-2.28-2.19-2.28
		C41.14,274.14,40.16,275.16,40.16,276.41z"/>
	<ellipse class="st1" cx="24.74" cy="421.52" rx="2.19" ry="2.28"/>
	<path class="st1" d="M163.92,395.18c0,1.26,0.98,2.28,2.19,2.28c1.21,0,2.19-1.02,2.19-2.28c0-1.26-0.98-2.28-2.19-2.28
		C164.9,392.91,163.92,393.93,163.92,395.18z"/>
	<ellipse class="st9" cx="342.03" cy="168.13" rx="2.19" ry="2.28"/>
	<ellipse class="st1" cx="106.68" cy="315.53" rx="2.19" ry="2.28"/>
	<path class="st9" d="M73.24,471.45c0,1.26,0.98,2.28,2.19,2.28c1.21,0,2.19-1.02,2.19-2.28c0-1.26-0.98-2.28-2.19-2.28
		C74.22,469.18,73.24,470.2,73.24,471.45z"/>
	<path class="st1" d="M276.05,27.9c0,1.26,0.98,2.28,2.19,2.28c1.21,0,2.19-1.02,2.19-2.28s-0.98-2.28-2.19-2.28
		C277.03,25.62,276.05,26.64,276.05,27.9z"/>
	<ellipse class="st7" cx="28.96" cy="41.52" rx="4.22" ry="4.39"/>
	<ellipse class="st7" cx="51.8" cy="442.55" rx="4.22" ry="4.39"/>
	<path class="st14" d="M178.21,171.75h44.09c1.93,0,3.5-1.57,3.5-3.5v-2.36c0-1.93-1.57-3.5-3.5-3.5h-44.09
		c-1.93,0-3.5,1.57-3.5,3.5v2.36C174.71,170.19,176.28,171.75,178.21,171.75z"/>
	<path class="st7" d="M204.76,190.23h16.55c2.48,0,4.5-2.1,4.5-4.68l0,0c0-2.59-2.01-4.68-4.5-4.68h-16.55c-2.48,0-4.5,2.1-4.5,4.68
		l0,0C200.26,188.13,202.27,190.23,204.76,190.23z"/>
	<path class="st10" d="M144.23,56.55h24.4c1.44,0,2.61-1.21,2.61-2.71l0,0c0-1.5-1.17-2.71-2.61-2.71h-24.4
		c-1.44,0-2.61,1.21-2.61,2.71l0,0C141.62,55.33,142.79,56.55,144.23,56.55z"/>
	<path class="st7" d="M159.04,67.26h9.59c1.44,0,2.61-1.21,2.61-2.71l0,0c0-1.5-1.17-2.71-2.61-2.71h-9.59
		c-1.44,0-2.61,1.21-2.61,2.71l0,0C156.43,66.04,157.6,67.26,159.04,67.26z"/>
	<path class="st10" d="M105.86,370.05h22.88c1.35,0,2.45-1.14,2.45-2.54l0,0c0-1.41-1.09-2.54-2.45-2.54h-22.88
		c-1.35,0-2.45,1.14-2.45,2.54l0,0C103.42,368.91,104.51,370.05,105.86,370.05z"/>
	<path class="st7" d="M119.75,380.09h8.99c1.35,0,2.45-1.14,2.45-2.54l0,0c0-1.41-1.09-2.54-2.45-2.54h-8.99
		c-1.35,0-2.45,1.14-2.45,2.54l0,0C117.3,378.96,118.4,380.09,119.75,380.09z"/>
	<g class="st18">
		<line class="st24" x1="114.23" y1="95" x2="90.6" y2="122.33"/>
		<line class="st24" x1="145.04" y1="123.86" x2="121.42" y2="151.18"/>
		<polygon class="st25" points="85.42,106.36 116.23,135.22 145.04,123.86 114.23,95 		"/>
		<polygon class="st24" points="61.79,133.69 92.6,162.54 121.42,151.18 90.6,122.33 		"/>
		<line class="st25" x1="116.23" y1="135.22" x2="92.6" y2="162.54"/>
		<line class="st25" x1="85.42" y1="106.36" x2="61.79" y2="133.69"/>
	</g>
	<rect x="-2.54" y="-1.45" class="st26" width="756.76" height="502.01"/>
</g>
<g id="DESIGNED_BY_FREEPIK">
</g>
</svg>
